<svg width="360" height="auto" viewBox="0 0 1920 600" fill="none" xmlns="http://www.w3.org/2000/svg">
    <path fill-rule="evenodd" clip-rule="evenodd" d="M38 187.718L121.7 103.17V496.29L38 412.718V187.718Z" fill="url(#paint0_linear_7_21)"/>
    <path fill-rule="evenodd" clip-rule="evenodd" d="M361.427 188.48L276.68 103.17L278.398 496.29L362 412.709L361.427 188.48Z" fill="url(#paint1_linear_7_21)"/>
    <path fill-rule="evenodd" clip-rule="evenodd" d="M121.693 103.71L339.32 435.912L278.422 496.83L60.6801 165.363L121.693 103.71Z" fill="url(#paint2_linear_7_21)"/>
    <path fill-rule="evenodd" clip-rule="evenodd" d="M121.7 256.979L121.585 270.03L54.74 171.054L60.9294 164.73L121.7 256.979Z" fill="#eee" fill-opacity="0.13"/>
    <path d="M540.395 397C527.172 397 514.793 394.796 503.256 390.389C491.848 385.852 481.802 379.5 473.117 371.333C464.561 363.167 457.885 353.574 453.089 342.555C448.293 331.537 445.895 319.481 445.895 306.389C445.895 293.296 448.293 281.241 453.089 270.222C457.885 259.074 464.561 249.417 473.117 241.25C481.802 232.954 491.783 226.537 503.061 222C514.469 217.333 526.783 215 540.006 215C551.932 215 563.08 216.879 573.45 220.639C583.82 224.398 593.024 229.713 601.061 236.583L591.145 276.639C586.219 268.602 579.413 261.861 570.728 256.417C562.172 250.842 551.932 248.055 540.006 248.055C528.987 248.055 519.135 250.583 510.45 255.639C501.765 260.694 494.895 267.629 489.839 276.444C484.913 285.259 482.45 295.241 482.45 306.389C482.45 317.796 484.913 327.907 489.839 336.722C494.895 345.407 501.765 352.278 510.45 357.333C519.135 362.259 528.922 364.722 539.811 364.722C545.126 364.722 550.052 364.204 554.589 363.167C559.126 362.129 563.209 360.574 566.839 358.5V324.667H531.256V295.5H598.728V380.472C590.691 385.657 581.682 389.741 571.7 392.722C561.848 395.574 551.413 397 540.395 397ZM672.167 397.389C664 397.389 656.287 395.444 649.028 391.555C641.769 387.537 635.871 381.768 631.334 374.25C626.926 366.602 624.723 357.398 624.723 346.639V276.833H658.556V342.167C658.556 348.648 660.5 354.417 664.389 359.472C668.408 364.528 673.982 367.055 681.112 367.055C686.945 367.055 692.13 364.981 696.667 360.833C701.334 356.555 703.667 350.463 703.667 342.555V276.833H737.5V393.5H706.778V381.25C702.63 386.435 697.51 390.454 691.417 393.305C685.454 396.028 679.037 397.389 672.167 397.389ZM763.617 393.5V276.833H797.45V393.5H763.617ZM766.145 261.667L784.033 222H820.783L792.783 261.667H766.145ZM875.884 396.611C865.125 396.611 855.338 393.824 846.523 388.25C837.708 382.676 830.643 375.287 825.329 366.083C820.143 356.75 817.551 346.444 817.551 335.167C817.551 323.889 820.143 313.583 825.329 304.25C830.643 294.917 837.708 287.528 846.523 282.083C855.338 276.509 865.125 273.722 875.884 273.722C883.403 273.722 890.273 275.083 896.495 277.805C902.717 280.398 908.032 284.028 912.44 288.694V276.833H941.606V393.5H912.44V381.639C908.032 386.305 902.717 390 896.495 392.722C890.273 395.315 883.403 396.611 875.884 396.611ZM879.967 366.861C885.671 366.861 890.856 365.435 895.523 362.583C900.19 359.731 903.884 355.907 906.606 351.111C909.458 346.315 910.884 341 910.884 335.167C910.884 329.333 909.458 324.018 906.606 319.222C903.884 314.426 900.19 310.602 895.523 307.75C890.856 304.898 885.671 303.472 879.967 303.472C874.264 303.472 869.079 304.898 864.412 307.75C859.745 310.602 855.986 314.426 853.134 319.222C850.412 324.018 849.051 329.333 849.051 335.167C849.051 341 850.412 346.315 853.134 351.111C855.986 355.907 859.745 359.731 864.412 362.583C869.079 365.435 874.264 366.861 879.967 366.861ZM1180.62 399.333L1058.12 268.083V393.5H1037.12V212.667L1159.62 343.917V218.5H1180.62V399.333ZM1279.4 395.833C1267.21 395.833 1256.26 393.111 1246.54 387.667C1236.95 382.222 1229.36 374.833 1223.79 365.5C1218.34 356.037 1215.62 345.537 1215.62 334C1215.62 322.981 1218.28 313 1223.59 304.055C1228.91 294.981 1236.04 287.787 1244.98 282.472C1254.06 277.157 1264.04 274.5 1274.93 274.5C1285.69 274.5 1295.54 277.092 1304.48 282.278C1313.43 287.333 1320.56 294.204 1325.87 302.889C1331.19 311.574 1333.84 321.426 1333.84 332.444V341H1257.62C1254.25 341 1250.82 340.87 1247.32 340.611C1243.82 340.352 1240.38 339.963 1237.01 339.444C1238.44 349.815 1243.1 358.5 1251.01 365.5C1259.05 372.5 1268.57 376 1279.59 376C1286.98 376 1293.85 374.315 1300.2 370.944C1306.56 367.574 1311.68 363.102 1315.57 357.528L1321.4 381.444C1315.82 385.981 1309.41 389.546 1302.15 392.139C1295.02 394.602 1287.44 395.833 1279.4 395.833ZM1236.43 325.25C1243.43 324.083 1250.49 323.5 1257.62 323.5H1296.32C1299.17 323.5 1301.95 323.629 1304.68 323.889C1307.53 324.018 1310.38 324.213 1313.23 324.472C1311.42 315.398 1306.88 307.944 1299.62 302.111C1292.36 296.148 1284.13 293.167 1274.93 293.167C1265.46 293.167 1257.17 296.342 1250.04 302.694C1242.91 308.917 1238.37 316.435 1236.43 325.25ZM1415.15 395.833C1403.87 395.833 1393.57 393.111 1384.23 387.667C1374.9 382.222 1367.45 374.898 1361.87 365.694C1356.43 356.491 1353.71 346.315 1353.71 335.167C1353.71 323.889 1356.43 313.713 1361.87 304.639C1367.45 295.435 1374.9 288.111 1384.23 282.667C1393.57 277.222 1403.87 274.5 1415.15 274.5C1426.56 274.5 1436.86 277.222 1446.07 282.667C1455.4 288.111 1462.79 295.435 1468.23 304.639C1473.81 313.713 1476.6 323.889 1476.6 335.167C1476.6 346.315 1473.81 356.491 1468.23 365.694C1462.79 374.898 1455.4 382.222 1446.07 387.667C1436.86 393.111 1426.56 395.833 1415.15 395.833ZM1415.15 376C1422.67 376 1429.48 374.185 1435.57 370.555C1441.66 366.796 1446.52 361.87 1450.15 355.778C1453.78 349.555 1455.6 342.685 1455.6 335.167C1455.6 327.648 1453.78 320.842 1450.15 314.75C1446.52 308.528 1441.66 303.602 1435.57 299.972C1429.48 296.213 1422.67 294.333 1415.15 294.333C1407.63 294.333 1400.83 296.213 1394.73 299.972C1388.64 303.602 1383.78 308.528 1380.15 314.75C1376.52 320.842 1374.71 327.648 1374.71 335.167C1374.71 342.685 1376.52 349.555 1380.15 355.778C1383.78 361.87 1388.64 366.796 1394.73 370.555C1400.83 374.185 1407.63 376 1415.15 376ZM1544.46 399.333L1485.54 276.833H1509.46L1533.18 327.389C1535.38 331.926 1537.46 336.398 1539.4 340.805C1541.35 345.213 1543.23 350.592 1545.04 356.944C1546.98 350.592 1548.93 345.213 1550.87 340.805C1552.95 336.268 1555.02 331.796 1557.1 327.389L1581.01 276.833H1603.37L1544.46 399.333ZM1624.37 393.5V276.833H1645.37V393.5H1624.37ZM1634.87 255.833C1630.98 255.833 1627.68 254.472 1624.96 251.75C1622.23 249.028 1620.87 245.722 1620.87 241.833C1620.87 237.815 1622.23 234.509 1624.96 231.917C1627.68 229.194 1630.98 227.833 1634.87 227.833C1638.89 227.833 1642.2 229.194 1644.79 231.917C1647.51 234.509 1648.87 237.815 1648.87 241.833C1648.87 245.722 1647.51 249.028 1644.79 251.75C1642.2 254.472 1638.89 255.833 1634.87 255.833ZM1682.62 393.5V276.833H1702.06V293.555C1706.34 287.204 1711.72 282.472 1718.2 279.361C1724.81 276.12 1731.75 274.5 1739 274.5C1746.91 274.5 1754.17 276.379 1760.78 280.139C1767.39 283.768 1772.71 288.889 1776.73 295.5C1781.26 288.5 1787.1 283.25 1794.23 279.75C1801.49 276.25 1809.13 274.5 1817.17 274.5C1825.99 274.5 1834.02 276.574 1841.28 280.722C1848.67 284.87 1854.5 290.704 1858.78 298.222C1863.19 305.611 1865.39 314.361 1865.39 324.472V393.5H1844.39V327C1844.39 316.37 1841.35 308.333 1835.25 302.889C1829.29 297.315 1822.36 294.528 1814.45 294.528C1809.52 294.528 1804.73 295.629 1800.06 297.833C1795.52 300.037 1791.76 303.472 1788.78 308.139C1785.93 312.805 1784.5 318.898 1784.5 326.417V393.5H1763.5V327C1763.5 319.611 1762.01 313.518 1759.03 308.722C1756.18 303.926 1752.42 300.361 1747.75 298.028C1743.22 295.565 1738.49 294.333 1733.56 294.333C1728.76 294.333 1724.03 295.435 1719.37 297.639C1714.83 299.842 1711.07 303.278 1708.09 307.944C1705.11 312.611 1703.62 318.768 1703.62 326.417V393.5H1682.62Z" fill="#eee"/>
    <defs>
        <linearGradient id="paint0_linear_7_21" x1="4223" y1="103.17" x2="4223" y2="39415.2" gradientUnits="userSpaceOnUse">
            <stop stop-color="#16B0ED" stop-opacity="0.800236"/>
            <stop offset="1" stop-color="#0F59B2" stop-opacity="0.837"/>
        </linearGradient>
        <linearGradient id="paint1_linear_7_21" x1="-3904" y1="103.17" x2="-3904" y2="39415.2" gradientUnits="userSpaceOnUse">
            <stop stop-color="#7DB643"/>
            <stop offset="1" stop-color="#367533"/>
        </linearGradient>
        <linearGradient id="paint2_linear_7_21" x1="13992.7" y1="103.71" x2="13992.7" y2="39415.7" gradientUnits="userSpaceOnUse">
            <stop stop-color="#88C649" stop-opacity="0.8"/>
            <stop offset="1" stop-color="#439240" stop-opacity="0.84"/>
        </linearGradient>
    </defs>
</svg>
